# ProBuilder 5.0.7
# https://unity3d.com/unity/features/worldbuilding/probuilder
# 2024-11-12 오전 2:20:30

mtllib ./Destory5.mtl
o Destory5

g 개체_292 (1)
v 1.796885 0.6822141 -1.895513
v 1.796885 -1.759675 -1.895513
v 1.796885 0.6822141 -0.9930716
v 1.796885 -1.759675 -0.09063768
v 1.796885 0.6822141 -0.09063768
v 1.796885 0.6822141 0.8117976
v 1.796885 -1.759675 1.714235
v 1.796885 0.6822141 1.714235
v -0.00798583 -1.759675 1.714235
v 1.611094 0.6822141 -0.9930716
v 1.611094 -1.573865 -1.895513
v 1.611094 0.6822141 -1.895513
v 1.611094 -1.573876 -0.09063768
v 1.611094 0.6822141 -0.09063768
v 1.611094 0.6822141 0.8117976
v 1.611094 0.6822141 1.714235
v 1.611094 -1.573876 1.714239
v -0.8482664 -0.7222048 1.704492
v 0.09568429 -2.126626 1.704492
v 0.09568429 -0.7222048 1.704492
v 0.09568429 0.6822141 1.704492
v -0.5259454 0.6822141 1.704492
v -1.170585 0.6822141 1.704492
v -0.8482664 -2.126626 1.704492
v -1.815235 -0.1236044 1.704492
v -1.815235 0.6822141 1.704492
v 1.818535 0.672294 -1.175395
v 1.818535 1.863275 -1.895513
v 1.818535 0.6723055 -1.895513
v 1.818535 0.6723055 -0.4552798
v 1.818535 1.863275 -0.0952239
v 1.818535 0.672294 0.2648344
v 1.818535 0.6723055 0.9849505
v 1.818535 0.6723055 1.705065
v 1.818535 1.863275 1.705065
v 1.596964 1.669385 1.705065
v 1.596964 1.669385 -0.0952239
v -0.009456396 1.669385 1.705065
v -0.009456396 1.669385 -1.895513
v 1.596964 1.669385 -1.895513
v -1.615856 1.669385 -0.0952239
v -1.615856 1.669385 1.705065
v -1.615856 1.669385 -1.895513
v -1.615856 0.6723055 -1.009215
v -1.615856 0.6723055 -1.895513
v -1.615856 0.6723055 -0.0952239
v -1.615856 0.6723055 1.705065
v -1.615856 0.6723055 0.7910733
v 0.119015 1.771875 1.704492
v -0.5359247 0.6802839 1.704492
v 0.119015 0.6802839 1.704492
v -0.863405 1.771875 1.704492
v -1.190876 0.6802839 1.704492
v -1.818535 0.6802839 1.704492
v -1.818535 1.417104 1.704492
v -1.818535 2.126615 1.704489
v -0.5359247 0.6802839 1.895517
v 0.119015 0.6802839 1.895517
v -1.190876 0.6802839 1.895517
v 1.596964 0.6723055 0.9849505
v 1.596964 0.6723055 1.705065
v 1.596964 0.672294 0.2648344
v 1.596964 0.6723055 -0.4552798
v 1.596964 0.672294 -1.175395
v 1.596964 0.6723055 -1.895513
v -1.809736 0.672294 0.2648344
v -1.809736 0.6723055 -0.4552798

vt 0 0.5912895
vt 0 0.8184072
vt 0.0822323 0.5912895
vt 0.1644646 0.8184072
vt 0.1644646 0.5912895
vt 0.2466969 0.5912895
vt 0.3289292 0.8184072
vt 0.3289292 0.5912895
vt 0.6656901 0.5442995
vt 0.8301547 0.3759191
vt 0.6656901 0.3759191
vt 0.2075387 0.2466969
vt 0 0.3289292
vt 0.2075387 0.3289292
vt 0 0.1644646
vt 0.2075387 0.1644646
vt 0.2075387 0.0822323
vt 0.2078431 0
vt 0 0
vt 0.6500268 0.8732288
vt 0.4659831 0.7479224
vt 0.6500268 0.7479224
vt 0.8301547 0.7479224
vt 0.8301547 0.8340706
vt 0.8301547 0.9163029
vt 0.4659831 0.8732288
vt 0.7283433 0.9985352
vt 0.8301547 0.9985352
vt 0.8419022 0.8536497
vt 0.689185 0.9515452
vt 0.8419022 0.9515452
vt 0.8419022 0.7596699
vt 0.689185 0.71268
vt 0.8419022 0.6656901
vt 0.8419022 0.5717103
vt 0.8419022 0.4738147
vt 0.689185 0.4738147
vt 0.4738147 0.4698989
vt 0.2388653 0.4698989
vt 0.4738147 0.6852692
vt 0 0.6852692
vt 0 0.4698989
vt 0.2388653 0.8967237
vt 0.4738147 0.8967237
vt 0 0.8967237
vt 0.1174747 0.3054343
vt 0 0.1762121
vt 0 0.3054343
vt 0.2388653 0.3054343
vt 0.2388653 0.1762121
vt 0.4738147 0.3054343
vt 0.35634 0.3054343
vt 0.4738147 0.1762121
vt 0.2427811 0.7479224
vt 0.1018114 0.8340706
vt 0.1018114 0.7479224
vt 0.2427811 0.8732288
vt 0.1018114 0.9163029
vt 0.1018114 0.9985352
vt 0.1957912 0.9985352
vt 0.289771 0.9985352
vt 0.02349494 0.2506127
vt 0 0.3328451
vt 0 0.2506127
vt 0.02349494 0.3328451
vt 0 0.4150774
vt 0.02349494 0.4150774
vt 0.3798349 0.3250134
vt 0.4738147 0.4542356
vt 0.4738147 0.3250134
vt 0.2388653 0.4542356
vt 0.2858552 0.3250134
vt 0.1918754 0.3250134
vt 0.09397978 0.3250134
vt 0 0.3250134
vt 0 0.4542356
vt 0.5051413 0.7596699
vt 0.4777305 0.71268
vt 0.5051413 0.6656901
vt 0.5325521 0.6656901
vt 0.5325521 0.7596699
vt 0.5051413 0.8536497
vt 0.5325521 0.8536497
vt 0.5051413 0.9515452
vt 0.5325521 0.9515452

vn 1 0 0
vn 0 -1 0
vn -1 0 0
vn 0 0 -1

usemtl Glass

usemtl Wall1
f 5/5/1 4/4/1 3/3/1
f 4/4/1 5/5/1 6/6/1
f 7/11/2 9/10/2 4/9/2
f 12/14/3 11/13/3 10/12/3
f 14/16/3 13/15/3 15/17/3
f 25/27/4 26/28/4 23/25/4
f 29/31/1 28/30/1 27/29/1
f 38/40/2 37/39/2 36/38/2
f 40/42/2 37/39/2 39/41/2
f 38/40/2 42/44/2 41/43/2
f 39/41/2 41/43/2 43/45/2
f 45/48/1 43/47/1 44/46/1
f 53/58/4 52/57/4 50/55/4
f 52/57/4 55/60/4 56/61/4
f 64/74/3 63/73/3 37/71/3
f 67/79/2 46/78/2 66/77/2
f 4/4/1 2/2/1 1/1/1
f 1/1/1 3/3/1 4/4/1
f 7/7/1 4/4/1 6/6/1
f 6/6/1 8/8/1 7/7/1
f 10/12/3 11/13/3 13/15/3
f 13/15/3 14/16/3 10/12/3
f 16/18/3 15/17/3 13/15/3
f 13/15/3 17/19/3 16/18/3
f 18/20/4 20/22/4 19/21/4
f 19/21/4 24/26/4 18/20/4
f 21/23/4 20/22/4 18/20/4
f 18/20/4 22/24/4 21/23/4
f 23/25/4 22/24/4 18/20/4
f 18/20/4 25/27/4 23/25/4
f 30/32/1 27/29/1 28/30/1
f 28/30/1 31/33/1 30/32/1
f 32/34/1 30/32/1 31/33/1
f 31/33/1 33/35/1 32/34/1
f 34/36/1 33/35/1 31/33/1
f 31/33/1 35/37/1 34/36/1
f 39/41/2 37/39/2 38/40/2
f 38/40/2 41/43/2 39/41/2
f 46/49/1 44/46/1 43/47/1
f 43/47/1 41/50/1 46/49/1
f 47/51/1 48/52/1 41/50/1
f 41/50/1 42/53/1 47/51/1
f 49/54/4 51/56/4 50/55/4
f 50/55/4 52/57/4 49/54/4
f 52/57/4 53/58/4 54/59/4
f 54/59/4 55/60/4 52/57/4
f 51/62/2 58/64/2 57/63/2
f 57/63/2 50/65/2 51/62/2
f 50/65/2 57/63/2 59/66/2
f 59/66/2 53/67/2 50/65/2
f 60/68/3 61/70/3 36/69/3
f 36/69/3 37/71/3 60/68/3
f 62/72/3 60/68/3 37/71/3
f 37/71/3 63/73/3 62/72/3
f 65/75/3 64/74/3 37/71/3
f 37/71/3 40/76/3 65/75/3
f 63/80/2 30/79/2 32/77/2
f 32/77/2 62/81/2 63/80/2
f 62/81/2 32/77/2 33/82/2
f 33/82/2 60/83/2 62/81/2
f 60/83/2 33/82/2 34/84/2
f 34/84/2 61/85/2 60/83/2

